<svg width="104" height="104" viewBox="0 0 104 104" fill="none" xmlns="http://www.w3.org/2000/svg">
<path d="M51.9986 0L88.7693 15.2307L104 51.9986L88.7693 88.7693L51.9986 104L15.2307 88.7693L0 51.9986L15.2307 15.2307L51.9986 0Z" fill="#161616"/>
<path d="M37.8556 43.864V34.68H39.4076C42.5596 34.68 43.8396 36.536 43.8396 39.176V39.304C43.8396 42.104 42.3676 43.864 39.4236 43.864H37.8556ZM36.4636 45H39.4556C43.4556 45 45.2796 42.488 45.2796 39.32V39.176C45.2796 35.992 43.4236 33.56 39.4876 33.56H36.4636V45ZM49.6042 45.144C50.8362 45.144 51.5882 44.728 52.2122 43.944V45H53.5402V39.48C53.5402 37.144 52.0842 36.488 50.4842 36.488C48.8682 36.488 47.3482 37.192 47.1722 39.096H48.5002C48.6282 38.072 49.2682 37.592 50.4202 37.592C51.7002 37.592 52.2122 38.152 52.2122 39.48V40.088H51.0122C48.8682 40.088 46.8202 40.744 46.8202 42.68C46.8202 44.392 48.0522 45.144 49.6042 45.144ZM49.7322 44.088C48.5642 44.088 48.1482 43.544 48.1482 42.68C48.1482 41.448 49.3802 41.032 51.0602 41.032H52.2122V42.072C52.2122 43.368 51.1402 44.088 49.7322 44.088ZM56.1809 45H57.5249V32.632H56.1809V45ZM63.6666 45.144C65.5546 45.144 66.9466 44.264 67.2346 42.584H65.9066C65.7306 43.56 64.9786 44.04 63.6826 44.04C61.9706 44.04 61.0586 42.984 60.9946 41.08H67.2986V40.648C67.2986 37.656 65.4746 36.488 63.5386 36.488C61.2346 36.488 59.6186 38.248 59.6186 40.776V40.904C59.6186 43.48 61.2986 45.144 63.6666 45.144ZM61.0426 40.008C61.2666 38.52 62.1786 37.592 63.5386 37.592C64.9146 37.592 65.8106 38.28 65.9386 40.008H61.0426ZM35.5261 69H36.9181V64.344H38.7741C40.9501 64.344 42.7741 63.4 42.7741 60.968V60.904C42.7741 58.52 40.9661 57.56 38.7741 57.56H35.5261V69ZM36.9181 63.24V58.68H38.8701C40.4221 58.68 41.3821 59.288 41.3821 60.904V60.968C41.3821 62.44 40.5021 63.24 38.8701 63.24H36.9181ZM44.759 69H46.103V56.632H44.759V69ZM50.9167 69.144C52.1487 69.144 52.9007 68.728 53.5247 67.944V69H54.8527V63.48C54.8527 61.144 53.3967 60.488 51.7967 60.488C50.1807 60.488 48.6607 61.192 48.4847 63.096H49.8127C49.9407 62.072 50.5807 61.592 51.7327 61.592C53.0127 61.592 53.5247 62.152 53.5247 63.48V64.088H52.3247C50.1807 64.088 48.1327 64.744 48.1327 66.68C48.1327 68.392 49.3647 69.144 50.9167 69.144ZM51.0447 68.088C49.8767 68.088 49.4607 67.544 49.4607 66.68C49.4607 65.448 50.6927 65.032 52.3727 65.032H53.5247V66.072C53.5247 67.368 52.4527 68.088 51.0447 68.088ZM57.979 71.912H59.323L63.947 60.632H62.587L60.267 66.632L57.707 60.632H56.283L59.563 68.136L57.979 71.912ZM66.6397 69.08C67.1997 69.08 67.6637 68.632 67.6637 68.056C67.6637 67.48 67.1997 67.032 66.6397 67.032C66.0797 67.032 65.6157 67.48 65.6157 68.056C65.6157 68.632 66.0797 69.08 66.6397 69.08ZM66.1437 65.768H67.1677L67.3917 57.56H65.9197L66.1437 65.768Z" fill="#FDFDFD"/>
</svg>
