<svg width="19" height="19" viewBox="0 0 19 19" fill="none" xmlns="http://www.w3.org/2000/svg">
<path fill-rule="evenodd" clip-rule="evenodd" d="M12.9925 7.24627C12.9925 10.4198 10.4198 12.9925 7.24627 12.9925C4.07269 12.9925 1.5 10.4198 1.5 7.24627C1.5 4.07269 4.07269 1.5 7.24627 1.5C10.4198 1.5 12.9925 4.07269 12.9925 7.24627ZM11.8127 12.8729C10.5665 13.8856 8.97725 14.4925 7.24627 14.4925C3.24426 14.4925 0 11.2483 0 7.24627C0 3.24426 3.24426 0 7.24627 0C11.2483 0 14.4925 3.24426 14.4925 7.24627C14.4925 8.97701 13.8858 10.566 12.8733 11.8122L18.1931 17.132L17.1325 18.1926L11.8127 12.8729Z" fill="#161616"/>
</svg>
