<svg width="24" height="24" viewBox="0 0 24 24" fill="none" xmlns="http://www.w3.org/2000/svg">
<path d="M5.1851 5.98553L2.67896 8.25719L3.5461 9.34906C3.93227 9.10901 4.70461 8.48279 5.04903 8.48279C5.82137 8.48279 6.51568 10.5754 7.17818 12.8768C7.77309 14.9433 8.38888 20.0783 11.2277 20.0783C14.4945 20.0783 21.3621 11.259 21.3621 7.33386C21.3621 5.91357 21.0803 3.86963 18.2519 3.86963C15.2209 3.86963 13.7298 6.79467 13.3631 8.25719C13.6269 8.08131 14.345 7.96406 14.7407 7.96406C16.3529 7.96406 16.0086 9.6351 15.7887 10.3093C15.5689 10.9834 13.8787 14.2661 12.9674 14.2661C11.8535 14.2661 11.194 9.42965 10.8716 7.33386C10.5492 5.23808 9.71377 4.09492 8.43871 4.09492C7.41866 4.09492 5.84462 5.35533 5.1851 5.98553Z" fill="#161616"/>
</svg>
