<svg width="166" height="42" viewBox="0 0 166 42" fill="none" xmlns="http://www.w3.org/2000/svg">
<path fill-rule="evenodd" clip-rule="evenodd" d="M31.7653 9.96002L20.8652 5.44509L9.96586 9.96002L5.45093 20.8593L9.96586 31.7594L20.8652 36.2744L31.7653 31.7594L36.2802 20.8593L31.7653 9.96002ZM17.3995 25.8649L21.9576 14.8609L24.3302 15.8437L19.7721 26.8477L17.3995 25.8649Z" fill="#161616"/>
<path d="M46.5566 29.517H49.3007V16.9378C49.3007 16.2336 49.2765 15.6265 49.2036 15.0437H49.3007C49.3493 15.4565 49.5436 16.355 49.7379 16.865L53.8662 29.517H56.6588L60.7386 16.865C60.9086 16.355 61.1271 15.4565 61.1757 15.0437H61.2485C61.1757 15.6508 61.1514 16.2579 61.1514 16.9378V29.517H64.0169V12.2753H59.6215L55.7603 24.2474C55.4932 25.0973 55.3961 25.4858 55.3232 26.1172H55.2746C55.2018 25.4858 55.1046 25.1216 54.8375 24.2716L50.9278 12.2753H46.5566V29.517Z" fill="#161616"/>
<path d="M73.5006 29.8084C76.9975 29.8084 79.4502 27.5014 79.4502 23.4217C79.4502 19.3663 76.9975 17.0835 73.5006 17.0835C70.0037 17.0835 67.551 19.3663 67.551 23.4217C67.551 27.5014 70.0037 29.8084 73.5006 29.8084ZM73.5006 27.5986C71.6308 27.5986 70.5137 26.1901 70.5137 23.4217C70.5137 20.6533 71.6308 19.2934 73.5006 19.2934C75.3705 19.2934 76.4633 20.6533 76.4633 23.4217C76.4633 26.1901 75.3705 27.5986 73.5006 27.5986Z" fill="#161616"/>
<path d="M82.8113 29.517H85.7254V23.0817C85.7254 20.7747 86.7453 19.4148 88.4452 19.4148C89.9751 19.4148 90.7036 20.3619 90.7036 22.2803V29.517H93.642V21.9889C93.642 18.7349 92.2578 17.0593 89.6109 17.0593C87.741 17.0593 86.4054 17.9335 85.5797 19.7305V17.375H82.8113V29.517Z" fill="#161616"/>
<path d="M102.622 29.8084C106.119 29.8084 108.571 27.5014 108.571 23.4217C108.571 19.3663 106.119 17.0835 102.622 17.0835C99.1247 17.0835 96.672 19.3663 96.672 23.4217C96.672 27.5014 99.1247 29.8084 102.622 29.8084ZM102.622 27.5986C100.752 27.5986 99.6347 26.1901 99.6347 23.4217C99.6347 20.6533 100.752 19.2934 102.622 19.2934C104.492 19.2934 105.584 20.6533 105.584 23.4217C105.584 26.1901 104.492 27.5986 102.622 27.5986Z" fill="#161616"/>
<path d="M115.913 29.8084C117.735 29.8084 119.119 28.8856 119.799 27.3314V29.517H122.543V11.911H119.629V19.0991C118.924 17.7392 117.735 17.0835 116.132 17.0835C113.096 17.0835 111.008 19.6819 111.008 23.4703C111.008 27.2586 112.975 29.8084 115.913 29.8084ZM116.909 27.5743C115.136 27.5743 114.043 26.0201 114.043 23.4217C114.043 20.8233 115.112 19.3177 116.885 19.3177C118.633 19.3177 119.702 20.7019 119.702 23.0817V23.8588C119.702 26.1415 118.609 27.5743 116.909 27.5743Z" fill="#161616"/>
<path d="M130.086 29.8084C132.053 29.8084 133.583 28.9099 134.166 27.4286C134.19 28.1814 134.263 28.9099 134.36 29.517H137.274C137.031 28.6671 136.91 27.4043 136.91 25.753V22.1346C136.91 18.6134 135.307 17.0835 131.713 17.0835C128.581 17.0835 126.541 18.6863 126.346 21.2847H129.333C129.431 19.9005 130.281 19.1477 131.713 19.1477C133.267 19.1477 133.972 19.9248 133.972 21.7461V22.0618L131.398 22.3775C129.479 22.6446 128.313 22.9603 127.439 23.4703C126.468 24.0774 125.958 25.0487 125.958 26.2144C125.958 28.3757 127.609 29.8084 130.086 29.8084ZM131.033 27.7443C129.746 27.7443 128.969 27.0886 128.969 26.0687C128.969 25.0244 129.698 24.4416 131.3 24.1745L134.045 23.7617V24.5388C134.045 26.4815 132.83 27.7443 131.033 27.7443Z" fill="#161616"/>
<path d="M138.856 19.4877H141.042V25.753C141.042 28.2057 142.013 29.7356 144.927 29.7356C145.68 29.7356 146.214 29.6627 146.918 29.517V27.0643C146.53 27.1615 146.214 27.21 145.728 27.21C144.514 27.21 143.956 26.6029 143.956 25.2916V19.4877H146.918V17.375H143.956V13.1495L141.042 14.3152V17.375H138.856V19.4877Z" fill="#161616"/>
<path d="M153.041 29.8084C155.008 29.8084 156.538 28.9099 157.121 27.4286C157.145 28.1814 157.218 28.9099 157.315 29.517H160.229C159.987 28.6671 159.865 27.4043 159.865 25.753V22.1346C159.865 18.6134 158.262 17.0835 154.668 17.0835C151.536 17.0835 149.496 18.6863 149.302 21.2847H152.289C152.386 19.9005 153.236 19.1477 154.668 19.1477C156.223 19.1477 156.927 19.9248 156.927 21.7461V22.0618L154.353 22.3775C152.434 22.6446 151.269 22.9603 150.394 23.4703C149.423 24.0774 148.913 25.0487 148.913 26.2144C148.913 28.3757 150.564 29.8084 153.041 29.8084ZM153.988 27.7443C152.701 27.7443 151.924 27.0886 151.924 26.0687C151.924 25.0244 152.653 24.4416 154.256 24.1745L157 23.7617V24.5388C157 26.4815 155.785 27.7443 153.988 27.7443Z" fill="#161616"/>
</svg>
