<svg width="160" height="160" viewBox="0 0 160 160" fill="none" xmlns="http://www.w3.org/2000/svg">
<path d="M79.9979 0L136.568 23.4319L160 79.9979L136.568 136.568L79.9979 160L23.4319 136.568L0 79.9979L23.4319 23.4319L79.9979 0Z" fill="#161616"/>
<path d="M66.3476 71.864V62.68H67.8996C71.0516 62.68 72.3316 64.536 72.3316 67.176V67.304C72.3316 70.104 70.8596 71.864 67.9156 71.864H66.3476ZM64.9556 73H67.9476C71.9476 73 73.7716 70.488 73.7716 67.32V67.176C73.7716 63.992 71.9156 61.56 67.9796 61.56H64.9556V73ZM78.0963 73.144C79.3283 73.144 80.0803 72.728 80.7043 71.944V73H82.0323V67.48C82.0323 65.144 80.5763 64.488 78.9763 64.488C77.3603 64.488 75.8403 65.192 75.6643 67.096H76.9923C77.1203 66.072 77.7603 65.592 78.9123 65.592C80.1923 65.592 80.7043 66.152 80.7043 67.48V68.088H79.5043C77.3603 68.088 75.3123 68.744 75.3123 70.68C75.3123 72.392 76.5443 73.144 78.0963 73.144ZM78.2243 72.088C77.0563 72.088 76.6403 71.544 76.6403 70.68C76.6403 69.448 77.8723 69.032 79.5523 69.032H80.7043V70.072C80.7043 71.368 79.6323 72.088 78.2243 72.088ZM84.6729 73H86.0169V60.632H84.6729V73ZM92.1586 73.144C94.0466 73.144 95.4386 72.264 95.7266 70.584H94.3986C94.2226 71.56 93.4706 72.04 92.1746 72.04C90.4626 72.04 89.5506 70.984 89.4866 69.08H95.7906V68.648C95.7906 65.656 93.9666 64.488 92.0306 64.488C89.7266 64.488 88.1106 66.248 88.1106 68.776V68.904C88.1106 71.48 89.7906 73.144 92.1586 73.144ZM89.5346 68.008C89.7586 66.52 90.6706 65.592 92.0306 65.592C93.4066 65.592 94.3026 66.28 94.4306 68.008H89.5346ZM64.0181 97H65.4101V92.344H67.2661C69.4421 92.344 71.2661 91.4 71.2661 88.968V88.904C71.2661 86.52 69.4581 85.56 67.2661 85.56H64.0181V97ZM65.4101 91.24V86.68H67.3621C68.9141 86.68 69.8741 87.288 69.8741 88.904V88.968C69.8741 90.44 68.9941 91.24 67.3621 91.24H65.4101ZM73.251 97H74.595V84.632H73.251V97ZM79.4088 97.144C80.6408 97.144 81.3928 96.728 82.0168 95.944V97H83.3448V91.48C83.3448 89.144 81.8888 88.488 80.2888 88.488C78.6728 88.488 77.1528 89.192 76.9768 91.096H78.3048C78.4328 90.072 79.0728 89.592 80.2248 89.592C81.5048 89.592 82.0168 90.152 82.0168 91.48V92.088H80.8168C78.6728 92.088 76.6248 92.744 76.6248 94.68C76.6248 96.392 77.8568 97.144 79.4088 97.144ZM79.5368 96.088C78.3688 96.088 77.9528 95.544 77.9528 94.68C77.9528 93.448 79.1848 93.032 80.8648 93.032H82.0168V94.072C82.0168 95.368 80.9448 96.088 79.5368 96.088ZM86.471 99.912H87.815L92.439 88.632H91.079L88.759 94.632L86.199 88.632H84.775L88.055 96.136L86.471 99.912ZM95.1318 97.08C95.6918 97.08 96.1558 96.632 96.1558 96.056C96.1558 95.48 95.6918 95.032 95.1318 95.032C94.5718 95.032 94.1078 95.48 94.1078 96.056C94.1078 96.632 94.5718 97.08 95.1318 97.08ZM94.6358 93.768H95.6598L95.8838 85.56H94.4118L94.6358 93.768Z" fill="#FDFDFD"/>
</svg>
